<?xml version="1.0" standalone="no"?>
<!DOCTYPE svg PUBLIC "-//W3C//DTD SVG 20010904//EN"
 "http://www.w3.org/TR/2001/REC-SVG-20010904/DTD/svg10.dtd">
<svg version="1.0" xmlns="http://www.w3.org/2000/svg"
 width="460.000000pt" height="460.000000pt" viewBox="0 0 460.000000 460.000000"
 preserveAspectRatio="xMidYMid meet">
<metadata>
Created by potrace 1.14, written by Peter Selinger 2001-2017
</metadata>
<g transform="translate(0.000000,460.000000) scale(0.100000,-0.100000)"
fill="#000000" stroke="none">
<path d="M2840 3970 c0 -13 -7 -20 -20 -20 -11 0 -20 -7 -20 -15 0 -8 -7 -15
-15 -15 -14 0 -19 -12 -16 -32 0 -5 -8 -8 -19 -8 -11 0 -20 -6 -20 -14 0 -8
-9 -17 -19 -21 -10 -3 -21 -15 -24 -25 -3 -11 -12 -20 -21 -20 -11 0 -16 -9
-16 -29 0 -20 -6 -30 -20 -34 -13 -3 -18 -10 -14 -21 4 -10 1 -16 -9 -16 -8 0
-17 -9 -20 -20 -3 -11 -11 -19 -19 -18 -8 2 -14 -9 -16 -31 -2 -23 -9 -35 -23
-38 -10 -3 -19 -11 -19 -18 0 -7 -7 -15 -15 -19 -8 -3 -15 -12 -15 -21 0 -8
-9 -15 -20 -15 -13 0 -20 -7 -20 -20 0 -11 -3 -19 -7 -19 -21 3 -33 -2 -33
-15 0 -8 -9 -18 -20 -21 -11 -3 -20 -13 -20 -21 0 -8 -6 -14 -14 -14 -7 0 -16
-9 -19 -20 -5 -19 -14 -20 -146 -20 -119 0 -141 -2 -141 -15 0 -11 -12 -15
-50 -15 -39 0 -52 -4 -60 -20 -8 -16 -21 -20 -60 -20 -44 0 -50 -3 -50 -21 0
-16 -4 -19 -20 -14 -11 4 -20 3 -19 -2 3 -19 -2 -33 -12 -33 -6 0 -9 7 -5 15
5 15 -13 20 -57 15 -11 -1 -21 7 -24 19 -3 12 -11 21 -18 21 -7 0 -15 9 -18
20 -3 11 -12 20 -21 20 -9 0 -16 6 -16 14 0 8 -7 16 -15 20 -8 3 -15 12 -15
21 0 8 -9 15 -20 15 -11 0 -20 6 -20 14 0 7 -9 16 -20 19 -13 3 -18 10 -14 21
5 13 -1 16 -35 16 -34 0 -41 3 -41 20 0 11 -7 20 -15 20 -8 0 -15 7 -15 16 0
9 -9 18 -20 21 -11 3 -20 12 -20 19 0 10 -15 14 -55 14 -48 0 -55 2 -55 20 0
11 -6 20 -14 20 -8 0 -18 9 -21 20 -3 11 -13 20 -21 20 -8 0 -14 7 -14 15 0
10 -10 15 -34 15 -25 0 -35 5 -39 20 -4 15 -14 20 -41 20 -25 0 -36 4 -36 15
0 12 -14 15 -69 15 -59 0 -69 3 -74 19 -4 17 -14 19 -93 18 -76 -2 -89 -5 -92
-19 -3 -14 4 -18 30 -18 23 0 37 -6 46 -21 10 -16 21 -20 43 -17 23 4 29 1 29
-14 0 -14 8 -18 35 -18 28 0 35 -4 35 -20 0 -16 7 -20 34 -20 25 0 35 -5 39
-20 3 -11 12 -20 21 -20 9 0 16 -7 16 -15 0 -8 9 -15 20 -15 13 0 20 -7 20
-20 0 -13 7 -20 20 -20 12 0 17 -5 14 -14 -3 -8 3 -16 15 -19 16 -4 21 -13 21
-41 0 -25 4 -36 15 -36 8 0 15 -7 15 -15 0 -8 9 -15 20 -15 16 0 20 -7 20 -34
0 -26 5 -36 20 -41 11 -3 20 -12 20 -20 0 -7 10 -15 21 -18 17 -5 21 -12 17
-36 -4 -25 -1 -31 14 -31 14 0 18 -8 18 -40 0 -34 3 -40 21 -40 18 0 21 -5 17
-35 -3 -29 -1 -35 14 -35 16 0 18 -9 18 -72 0 -40 3 -90 6 -110 6 -34 4 -38
-15 -38 -17 0 -21 -6 -21 -35 0 -28 -4 -35 -20 -35 -16 0 -20 -7 -20 -35 0
-24 -5 -35 -15 -35 -8 0 -15 -9 -15 -20 0 -13 -7 -20 -20 -20 -11 0 -20 -7
-20 -15 0 -9 -7 -18 -15 -21 -8 -4 -15 -17 -15 -29 0 -36 -10 -54 -26 -48 -8
3 -14 -1 -14 -11 0 -10 -8 -16 -21 -16 -15 0 -19 -4 -15 -16 4 -11 -1 -18 -14
-21 -11 -3 -20 -14 -20 -24 0 -13 -9 -19 -37 -21 -24 -2 -37 -8 -35 -15 1 -8
-8 -13 -23 -13 -15 0 -25 6 -25 15 0 8 -14 17 -34 20 -23 5 -36 14 -39 27 -3
11 -10 17 -15 14 -5 -3 -12 3 -15 14 -3 11 -12 20 -21 20 -9 0 -16 7 -16 15 0
8 -9 15 -20 15 -13 0 -20 7 -20 20 0 13 -7 20 -20 20 -26 0 -26 -30 0 -37 14
-4 20 -14 20 -35 0 -21 6 -31 20 -35 15 -4 20 -14 20 -39 0 -24 5 -34 15 -34
10 0 15 -11 15 -35 0 -28 4 -35 20 -35 18 0 20 -7 20 -55 0 -40 4 -55 14 -55
7 0 16 -9 19 -20 3 -11 12 -20 21 -20 9 0 16 -7 16 -15 0 -8 9 -15 20 -15 18
0 20 -7 20 -55 0 -40 4 -55 14 -55 7 0 16 -10 20 -22 9 -34 8 -36 -14 -43 -18
-6 -20 -15 -20 -96 0 -82 -1 -89 -20 -89 -18 0 -20 -7 -20 -89 0 -81 -2 -89
-21 -94 -18 -5 -20 -11 -16 -71 4 -59 3 -65 -16 -68 -19 -3 -20 -9 -18 -75 2
-69 1 -73 -19 -73 -19 0 -21 -5 -19 -42 4 -97 -1 -138 -16 -138 -12 0 -15 -15
-15 -75 0 -41 -3 -74 -7 -74 -29 5 -33 -4 -33 -71 0 -63 -2 -70 -20 -70 -18 0
-20 -7 -20 -70 0 -54 -4 -72 -15 -76 -11 -5 -15 -23 -15 -71 0 -56 -3 -66 -20
-70 -15 -4 -20 -14 -20 -39 0 -24 -5 -34 -15 -34 -17 0 -17 -2 -15 -82 1 -52
-1 -58 -19 -58 -19 0 -21 -6 -21 -60 0 -45 -4 -60 -14 -60 -20 0 -24 -17 -18
-82 4 -54 3 -58 -17 -58 -19 0 -21 -6 -21 -60 0 -53 2 -60 20 -60 15 0 20 7
20 25 0 16 6 25 15 25 12 0 15 17 15 90 0 83 1 90 20 90 18 0 20 7 20 75 0 60
3 75 15 75 11 0 15 12 15 50 0 43 3 50 20 50 18 0 20 7 20 55 0 42 3 55 15 55
12 0 15 14 15 69 0 60 2 69 20 74 18 5 20 14 20 76 0 64 2 71 20 71 17 0 19 8
22 73 2 51 7 71 16 70 9 -2 12 17 12 72 0 68 2 75 20 75 18 0 20 7 20 70 0 55
3 70 15 70 11 0 15 17 17 73 l3 72 72 3 c56 2 73 6 73 17 0 8 9 15 20 15 13 0
20 7 20 20 0 16 7 20 35 20 21 0 35 5 35 13 0 15 44 57 59 57 6 0 11 7 11 16
0 9 9 18 20 21 11 3 20 12 20 19 0 8 6 14 14 14 8 0 18 9 21 20 3 11 13 20 21
20 8 0 14 9 14 20 0 13 7 20 20 20 16 0 20 7 20 34 0 32 3 35 33 38 20 2 31 8
29 16 -1 8 7 16 18 19 12 3 19 11 17 17 -7 18 11 56 28 56 8 0 15 9 15 20 0
11 6 19 13 18 8 -2 13 14 15 51 3 43 7 54 23 58 16 5 19 14 19 69 0 57 -2 64
-20 64 -13 0 -20 7 -20 20 0 13 -5 18 -15 14 -10 -4 -15 0 -15 15 0 17 -6 21
-35 21 l-35 0 0 55 c0 48 2 55 20 55 13 0 20 7 20 20 0 11 6 20 14 20 7 0 16
9 19 20 4 15 14 20 42 20 49 0 42 24 -8 28 -29 3 -37 7 -37 23 0 15 -7 19 -39
19 -22 0 -42 -5 -44 -12 -4 -10 -6 -10 -6 0 -1 7 -5 10 -11 7 -7 -4 -10 70
-10 215 0 215 1 222 21 227 12 3 18 11 15 19 -3 9 2 14 14 14 12 0 20 7 20 16
0 9 9 18 20 21 11 3 20 11 20 18 0 7 9 15 21 18 12 3 18 10 14 17 -4 7 2 14
14 17 12 3 21 13 21 24 0 12 7 19 20 19 11 0 20 7 20 15 0 12 14 15 70 15 63
0 70 2 70 20 0 13 7 20 20 20 13 0 20 7 20 18 0 15 6 17 35 14 30 -4 35 -1 35
17 0 19 6 21 55 21 48 0 55 2 55 20 0 20 7 20 275 20 268 0 275 0 275 -20 0
-18 7 -20 55 -20 48 0 55 -2 55 -20 0 -17 7 -20 50 -20 36 0 52 -4 56 -15 4
-9 19 -15 40 -15 27 0 34 -4 34 -20 0 -18 7 -20 75 -20 62 0 73 -2 69 -15 -5
-12 2 -15 31 -15 28 0 38 -5 42 -20 6 -24 35 -26 57 -5 8 8 22 15 30 15 9 0
16 -7 16 -15 0 -10 -10 -15 -30 -15 -28 0 -30 -3 -30 -35 l0 -35 -95 0 c-88 0
-95 -1 -95 -20 0 -16 -7 -20 -35 -20 -33 0 -35 -2 -35 -35 0 -33 2 -35 35 -35
25 0 35 -4 35 -15 0 -9 7 -18 15 -21 8 -4 15 -14 15 -23 0 -13 -11 -16 -50
-17 l-50 0 -6 38 c-9 53 -34 51 -34 -2 0 -33 -3 -40 -20 -40 -18 0 -20 -7 -20
-70 0 -63 2 -70 20 -70 11 0 20 -7 20 -15 0 -12 19 -15 111 -15 95 0 110 2
105 15 -4 12 3 15 34 15 33 0 40 3 40 20 0 11 7 20 15 20 10 0 15 11 15 35 0
28 4 35 20 35 19 0 20 7 20 90 0 87 1 90 23 90 20 0 23 -4 19 -35 -4 -30 -1
-35 17 -35 12 0 21 -6 21 -15 0 -8 7 -15 15 -15 9 0 15 -9 15 -25 0 -16 -6
-25 -15 -25 -11 0 -15 -12 -15 -50 0 -38 4 -50 15 -50 8 0 15 -9 15 -20 0 -13
7 -20 20 -20 14 0 20 -6 18 -17 -2 -10 3 -18 12 -18 10 0 16 -12 18 -37 3 -30
7 -38 23 -38 10 0 19 -7 19 -15 0 -8 7 -15 16 -15 9 0 18 -9 21 -20 3 -11 12
-20 19 -20 11 0 14 -18 14 -75 0 -60 -3 -75 -15 -75 -12 0 -15 -17 -15 -90 0
-83 -1 -90 -20 -90 -18 0 -20 -7 -20 -55 0 -40 -4 -55 -14 -55 -7 0 -16 -9
-19 -20 -3 -13 -10 -18 -21 -14 -11 4 -16 1 -16 -11 0 -9 -9 -19 -20 -22 -11
-3 -20 -12 -20 -19 0 -8 -7 -14 -15 -14 -13 0 -15 -39 -15 -290 0 -251 2 -290
15 -290 12 0 15 -15 15 -75 0 -68 2 -75 20 -75 16 0 20 -7 20 -30 0 -23 4 -30
20 -30 17 0 20 7 20 46 0 37 -4 47 -20 51 -17 5 -20 14 -20 59 0 47 -2 54 -20
54 -20 0 -20 7 -20 270 0 263 0 270 20 270 12 0 20 7 20 16 0 9 9 18 20 21 11
3 20 12 20 19 0 8 7 14 15 14 10 0 15 10 15 31 0 22 5 32 20 36 17 5 20 14 20
59 0 41 4 54 15 54 12 0 15 15 15 71 0 63 2 71 20 76 20 5 20 12 18 167 -3
146 -5 161 -20 160 -13 -1 -18 5 -18 22 0 17 -4 22 -15 18 -12 -5 -15 2 -15
29 0 27 -5 37 -20 42 -11 3 -20 13 -20 21 0 8 -6 14 -14 14 -7 0 -16 9 -19 20
-3 12 -14 20 -27 20 -16 0 -21 6 -20 23 4 38 0 47 -15 41 -12 -5 -15 3 -15 35
0 28 -4 41 -13 41 -8 0 -22 10 -33 22 -13 16 -14 19 -3 10 15 -11 17 -10 15
12 0 13 -3 24 -6 24 -24 -2 -30 6 -30 42 0 33 -3 40 -20 40 -16 0 -20 7 -20
36 0 28 -3 35 -17 32 -13 -2 -18 -13 -19 -38 0 -38 -22 -53 -31 -21 -4 16 -13
21 -39 21 -27 0 -34 4 -34 20 0 17 -7 20 -40 20 -29 0 -40 4 -40 15 0 10 -11
15 -35 15 -28 0 -35 4 -35 20 0 16 -7 20 -34 20 -25 0 -35 5 -39 20 -3 11 -12
20 -21 20 -12 0 -16 10 -16 35 0 24 -5 35 -15 35 -12 0 -15 17 -15 90 0 73 3
90 15 90 12 0 15 14 15 70 0 63 2 70 20 70 19 0 20 7 20 95 0 78 3 95 15 95
10 0 15 11 15 35 0 24 -5 35 -15 35 -8 0 -15 -9 -15 -20z"/>
<path d="M1720 2849 c0 -15 -7 -19 -35 -19 -25 0 -35 -4 -35 -16 0 -9 -9 -18
-20 -21 -11 -3 -20 -10 -20 -17 0 -14 -44 -56 -59 -56 -6 0 -11 -16 -11 -35 0
-24 5 -35 14 -35 10 0 16 -13 18 -37 l3 -38 73 -3 c55 -2 72 -6 72 -17 0 -11
14 -15 55 -15 49 0 55 -2 55 -21 0 -19 5 -20 105 -18 94 2 105 4 105 21 0 14
8 18 35 18 24 0 35 5 35 15 0 8 9 15 20 15 17 0 20 7 20 40 0 33 -3 40 -20 40
-16 0 -20 7 -20 35 0 24 -5 35 -15 35 -8 0 -15 6 -15 14 0 7 -9 16 -20 19 -11
3 -20 12 -20 21 0 9 -6 16 -14 16 -7 0 -16 9 -19 20 -4 15 -14 20 -40 20 -26
0 -36 5 -40 20 -5 19 -13 21 -106 19 -92 -1 -101 -3 -101 -20z m70 -73 c0 -7
9 -16 20 -19 11 -3 20 -12 20 -21 0 -13 -13 -16 -75 -16 l-75 0 0 35 0 35 55
0 c40 0 55 -4 55 -14z"/>
<path d="M2555 2340 c3 -5 8 -10 11 -10 2 0 4 5 4 10 0 6 -5 10 -11 10 -5 0
-7 -4 -4 -10z"/>
<path d="M1866 2284 c-4 -14 -5 -28 -3 -31 3 -2 8 8 11 23 4 14 5 28 3 31 -3
2 -8 -8 -11 -23z"/>
<path d="M3403 1202 c-10 -6 -17 -50 -14 -94 1 -10 8 -18 16 -18 12 0 15 -14
15 -70 0 -63 2 -70 20 -70 18 0 20 -7 20 -55 0 -42 3 -55 15 -55 12 0 15 -13
15 -55 0 -48 2 -55 20 -55 19 0 20 -7 20 -91 0 -81 2 -90 18 -87 14 3 17 17
20 89 3 80 1 87 -18 92 -17 4 -20 13 -20 56 0 44 -3 51 -20 51 -18 0 -20 7
-20 55 0 42 -3 55 -15 55 -12 0 -15 14 -15 69 0 60 -3 69 -19 74 -16 4 -21 15
-23 61 -2 39 -6 53 -15 48z"/>
<path d="M3568 453 c-4 -123 0 -153 18 -153 11 0 14 -26 14 -150 0 -143 1
-150 20 -150 19 0 20 7 20 170 0 163 -1 170 -20 170 -19 0 -20 7 -20 105 0 85
-3 105 -14 105 -12 0 -15 -21 -18 -97z"/>
</g>
</svg>
